<svg width="1920" height="1080" viewBox="0 0 1920 1080" fill="none" xmlns="http://www.w3.org/2000/svg">
<g clip-path="url(#clip0_505_44)">
<rect width="1920" height="1080" fill="white"/>
<path d="M1024.12 324.078C1021.73 325.747 1019.24 327.326 1016.6 328.764C1000.23 337.666 994.905 357.794 988.618 372.404M1043.03 317.64C1035.89 319.886 1029.66 321.904 1024.12 324.078L1043.03 317.64ZM1024.12 324.078C1008.96 330.029 999.015 337.145 989.954 353.293C983.888 364.104 980.343 375.905 977.308 387.653C969.469 417.995 981.899 440.29 1003 463.533C1034.1 497.79 1086.87 525.276 1137.87 516.156C1174.99 509.519 1208.84 483.723 1224.53 453.752C1238.44 427.198 1235.66 400.81 1231.12 372.608C1220.65 307.652 1153.75 275.526 1086.78 291.093C1067.47 295.581 1050.62 303.437 1035.71 315.222C1031.85 318.272 1028.1 321.301 1024.12 324.078Z" stroke="black" stroke-width="0.8751" stroke-dasharray="10.59 10.59"/>
<path d="M261.913 988.48C259.612 989.535 254.083 991.323 255.748 994.931C256.169 995.843 257.143 996.425 258.141 996.014C259.405 995.494 261.03 990.357 259.331 990.749C257.864 991.087 256.07 996.476 257.6 993.926C258.554 992.335 259.795 986.323 257.817 990.774" stroke="black" stroke-width="2.02391" stroke-linecap="round"/>
<path d="M263.945 996.903C265.379 996.367 270.683 995.259 271.36 993.36C271.56 992.796 270.894 992.466 270.486 992.752C269.008 993.784 268.231 996.169 268.268 997.904C268.304 999.604 276.927 992.171 270.172 993.167" stroke="black" stroke-width="2.02391" stroke-linecap="round"/>
<path d="M262.799 1007.65C262.691 1007.81 256.335 1016.29 260.656 1014.34C261.999 1013.73 262.605 1012.74 262.668 1011.36" stroke="black" stroke-width="2.02391" stroke-linecap="round"/>
<path d="M241.856 1009.85C241.456 1010.59 237.81 1015.68 238.819 1016.79C239.466 1017.5 240.004 1016.67 240.166 1016.07C240.358 1015.36 240.726 1006.69 238.247 1009.33C236.047 1011.69 237.088 1018.8 239.937 1013.78C241.743 1010.6 242.612 1004.12 237.464 1007.42" stroke="black" stroke-width="2.02391" stroke-linecap="round"/>
<path d="M244.806 1030.13C244.347 1029.56 240.547 1023.39 239.383 1025.43C238.571 1026.85 238.39 1028.59 238.271 1030.19C238.161 1031.67 239.329 1036.9 240.949 1033.39C241.366 1032.48 242.837 1025.69 241.08 1025.48C239.132 1025.24 239.808 1031.22 240.643 1032.2" stroke="black" stroke-width="2.02391" stroke-linecap="round"/>
<path d="M257.718 1030.92C257.724 1030.88 258.875 1022.24 257.817 1025.49C257.314 1027.04 257.82 1028.61 258.177 1030.1" stroke="black" stroke-width="2.02391" stroke-linecap="round"/>
<path d="M279.48 1009.98C282.506 1010.13 287.194 1011.21 287.598 1007.1C287.754 1005.52 287.338 1005.25 285.97 1005.52" stroke="black" stroke-width="2.02391" stroke-linecap="round"/>
<path d="M261.848 1041.18C262.452 1042.5 264.348 1048.7 265.821 1044.96C266.549 1043.11 266.913 1041.21 266.855 1039.22C266.775 1036.48 266.569 1040.18 266.829 1041.28" stroke="black" stroke-width="2.02391" stroke-linecap="round"/>
<path d="M290.165 1002.7C289.095 1003.43 282.818 1006.24 284.758 1008.53C285.931 1009.92 288.184 1008.53 289.189 1007.74C294.805 1003.35 288.423 1001.85 284.936 1006.85C282.52 1010.32 284.361 1012.49 286.385 1008.58C287.949 1005.56 286.423 1003.18 285.544 1006.96" stroke="black" stroke-width="2.02391" stroke-linecap="round"/>
<path d="M285.61 1023.65C284.287 1025.16 279.7 1028.83 280.533 1031.44C281.002 1032.91 282.938 1030.32 283.115 1029.97C283.548 1029.14 286.487 1018.2 282.799 1020.55C281.944 1021.1 279.488 1025.39 280.787 1026.31C282.61 1027.58 284.285 1023.53 284.266 1022.24" stroke="black" stroke-width="2.02391" stroke-linecap="round"/>
<path d="M262.176 1045.47C265.307 1027.17 258.167 1044.79 260.322 1045.32C262.756 1045.91 264.156 1036.55 261.684 1041.08" stroke="black" stroke-width="2.02391" stroke-linecap="round"/>
<path d="M224.452 1056.75C225.881 1052.91 228.289 1044.46 223.797 1051.47" stroke="black" stroke-width="2.02391" stroke-linecap="round"/>
<path d="M254.998 1069.53C254.833 1069.72 250.79 1074.79 250.991 1074.78C252.166 1074.71 252.937 1072.03 253.236 1071.2C253.455 1070.58 255.145 1064.64 253.895 1066.18C252.566 1067.81 252.049 1071.57 252.642 1073.57C253.671 1077.05 256.337 1071.07 256.502 1070.13C257.213 1066.1 254.33 1067.64 253.214 1070.1C252.174 1072.39 252.126 1076.49 254.922 1072.76C255.447 1072.06 258.4 1064.62 255.757 1065.95C254.158 1066.75 251.953 1072.87 255.228 1070.35" stroke="black" stroke-width="2.02391" stroke-linecap="round"/>
<path d="M268.763 1062.12C268.855 1062.05 277.467 1056.25 274.04 1055.71C271.268 1055.28 267.715 1058.91 265.683 1060.38" stroke="black" stroke-width="2.02391" stroke-linecap="round"/>
<path d="M242.118 1057.07C242.128 1057.04 244.288 1047.94 244.27 1047.95C243.549 1048.1 243.043 1050.92 242.919 1051.44C242.826 1051.84 241.805 1057.11 243.236 1056.15C245.057 1054.92 248.705 1045.96 243.822 1052.06" stroke="black" stroke-width="2.02391" stroke-linecap="round"/>
<path d="M226.484 1038.33C226.354 1037.13 226.637 1026.39 224.354 1031.44C224.022 1032.18 221.74 1038.38 223.84 1037.44C227.303 1035.88 228.793 1026.3 224.419 1033.97" stroke="black" stroke-width="2.02391" stroke-linecap="round"/>
<path d="M291.345 1038.16C291.437 1038.05 296.789 1031.09 293.719 1033.59C292.166 1034.85 291.297 1036.92 290.595 1038.74C289.696 1041.06 290.164 1041.8 290.984 1039.02" stroke="black" stroke-width="2.02391" stroke-linecap="round"/>
<path d="M273.811 962C273.307 962.455 264.704 970.591 269.139 971.169C271.05 971.418 272.099 969.053 272.886 967.688C275.954 962.366 270.31 965.949 269.932 969.479C269.833 970.407 270.973 971.059 271.546 970.184C272.346 968.961 273.567 966.339 273.243 964.815C273.118 964.227 272.381 965.487 272.611 966.027C273.245 967.522 274.975 965.117 275.253 964.589" stroke="black" stroke-width="2.02391" stroke-linecap="round"/>
<path d="M246.772 984.58C246.551 984.773 240.808 989.264 241.756 989.924C242.482 990.429 243.895 988.165 244.136 987.814C244.583 987.161 246.398 983.11 246.117 983.827" stroke="black" stroke-width="2.02391" stroke-linecap="round"/>
<path d="M283.348 979.566C282.886 980.133 277.856 984.901 279.761 985.775C280.661 986.187 281.431 985.328 281.961 984.704C282.463 984.113 284.135 980.294 282.533 980.196C279.464 980.009 280.66 988.077 282.802 983.481C284.828 979.133 280.288 979.34 281.247 982.974C281.697 984.68 282.362 981.366 282.314 980.837C282.034 977.723 280.145 979.849 279.907 981.696" stroke="black" stroke-width="2.02391" stroke-linecap="round"/>
<path d="M300.915 994.281C299.06 995.691 294.282 1000.45 296.485 999.687C297.974 999.173 299.21 995.376 299.523 994.024C300.403 990.23 295.585 996.367 297.868 998.152C300.922 1000.54 302.52 988.681 298.744 994.427C298.165 995.309 295.868 1000.52 297.91 1000.62C300.507 1000.75 301.033 995.947 301.078 994.281" stroke="black" stroke-width="2.02391" stroke-linecap="round"/>
<path d="M242.052 1007.13C241.959 1007.24 236.505 1014.23 237.675 1014.04C238.668 1013.88 239.073 1011.43 239.281 1010.69C239.622 1009.47 240.197 1003.54 238.704 1007.48C238.085 1009.12 238.938 1013.07 239.578 1010.1C239.782 1009.15 240.186 1006.77 238.997 1006.22C237.513 1005.54 237.684 1010.01 237.661 1010.67" stroke="black" stroke-width="2.02391" stroke-linecap="round"/>
<path d="M135.381 4.28302C132.21 5.73819 124.59 8.20343 126.885 13.1805C127.465 14.4385 128.807 15.2416 130.182 14.6749C131.924 13.957 134.164 6.87212 131.823 7.41212C129.8 7.87874 127.328 15.3114 129.437 11.7943C130.752 9.60012 132.462 1.30757 129.735 7.4473" stroke="black" stroke-width="2.02391" stroke-linecap="round"/>
<path d="M138.181 15.9003C140.156 15.1618 147.466 13.6335 148.398 11.0134C148.674 10.2359 147.756 9.78123 147.193 10.1746C145.158 11.5985 144.087 14.8877 144.137 17.2815C144.187 19.6267 156.07 9.37364 146.762 10.7472" stroke="black" stroke-width="2.02391" stroke-linecap="round"/>
<path d="M136.6 30.7271C136.451 30.9397 127.693 42.6451 133.647 39.9537C135.498 39.1168 136.333 37.7457 136.42 35.8351" stroke="black" stroke-width="2.02391" stroke-linecap="round"/>
<path d="M107.74 33.7557C107.189 34.7821 102.165 41.8048 103.555 43.3338C104.447 44.3159 105.189 43.1665 105.411 42.3368C105.675 41.3532 106.182 29.3931 102.767 33.0476C99.7345 36.2917 101.17 46.1021 105.095 39.1851C107.584 34.7982 108.782 25.8501 101.688 30.4106" stroke="black" stroke-width="2.02391" stroke-linecap="round"/>
<path d="M111.805 61.7367C111.173 60.9413 105.937 52.4359 104.333 55.245C103.214 57.205 102.964 59.605 102.8 61.8095C102.648 63.8548 104.258 71.0698 106.491 66.2218C107.066 64.9738 109.092 55.6028 106.672 55.3127C103.987 54.9912 104.918 63.2305 106.069 64.5844" stroke="black" stroke-width="2.02391" stroke-linecap="round"/>
<path d="M129.6 62.8215C129.608 62.7709 131.194 50.8444 129.735 55.3328C129.043 57.4628 129.74 59.6305 130.232 61.6915" stroke="black" stroke-width="2.02391" stroke-linecap="round"/>
<path d="M159.589 33.9365C163.758 34.1487 170.218 35.6283 170.775 29.9687C170.99 27.7807 170.417 27.4161 168.531 27.7888" stroke="black" stroke-width="2.02391" stroke-linecap="round"/>
<path d="M135.291 76.9702C136.124 78.7913 138.737 87.3515 140.766 82.1887C141.77 79.6346 142.271 77.0095 142.191 74.2706C142.081 70.4919 141.797 75.588 142.156 77.1058" stroke="black" stroke-width="2.02391" stroke-linecap="round"/>
<path d="M174.312 23.9014C172.837 24.9087 164.187 28.779 166.86 31.9426C168.478 33.857 171.582 31.9408 172.968 30.8552C180.707 24.7891 171.912 22.7229 167.106 29.6272C163.777 34.4101 166.314 37.3938 169.104 32.0054C171.258 27.8433 169.156 24.565 167.944 29.7778" stroke="black" stroke-width="2.02391" stroke-linecap="round"/>
<path d="M168.035 52.7863C166.211 54.871 159.89 59.9389 161.039 63.5448C161.685 65.5723 164.353 61.9866 164.597 61.5157C165.194 60.3657 169.244 45.28 164.161 48.5222C162.983 49.2731 159.598 55.1985 161.388 56.4555C163.9 58.22 166.209 52.628 166.183 50.8426" stroke="black" stroke-width="2.02391" stroke-linecap="round"/>
<path d="M135.742 82.8919C140.057 57.6455 130.218 81.9542 133.188 82.681C136.542 83.5015 138.472 70.5829 135.065 76.8346" stroke="black" stroke-width="2.02391" stroke-linecap="round"/>
<path d="M83.7578 98.4419C85.7259 93.1575 89.0443 81.4996 82.8545 91.1642" stroke="black" stroke-width="2.02391" stroke-linecap="round"/>
<path d="M125.851 116.072C125.624 116.332 120.052 123.332 120.328 123.316C121.948 123.222 123.011 119.528 123.422 118.377C123.725 117.527 126.053 109.337 124.33 111.451C122.499 113.698 121.787 118.892 122.604 121.654C124.022 126.446 127.696 118.203 127.923 116.91C128.903 111.348 124.929 113.463 123.392 116.859C121.959 120.025 121.893 125.67 125.746 120.531C126.469 119.566 130.539 109.303 126.897 111.134C124.693 112.241 121.654 120.687 126.167 117.201" stroke="black" stroke-width="2.02391" stroke-linecap="round"/>
<path d="M144.821 105.855C144.947 105.763 156.814 97.7542 152.092 97.0155C148.272 96.4178 143.376 101.429 140.575 103.459" stroke="black" stroke-width="2.02391" stroke-linecap="round"/>
<path d="M108.102 98.8939C108.115 98.8437 111.091 86.3022 111.067 86.3073C110.074 86.5142 109.376 90.4131 109.206 91.129C109.077 91.6694 107.671 98.9459 109.642 97.6182C112.151 95.9286 117.179 83.5588 110.45 91.9778" stroke="black" stroke-width="2.02391" stroke-linecap="round"/>
<path d="M86.5581 73.0375C86.3784 71.3903 86.7685 56.5721 83.6224 63.5397C83.1652 64.5521 80.0204 73.1114 82.9148 71.8095C87.6856 69.6634 89.7396 56.4448 83.7127 67.0255" stroke="black" stroke-width="2.02391" stroke-linecap="round"/>
<path d="M175.939 72.8116C176.066 72.6586 183.441 63.0532 179.211 66.4981C177.071 68.2406 175.873 71.0973 174.905 73.6C173.667 76.8035 174.311 77.8215 175.442 73.9868" stroke="black" stroke-width="2.02391" stroke-linecap="round"/>
<path d="M114.515 -1.09613C114.21 -0.830339 106.297 5.36428 107.602 6.27449C108.602 6.97159 110.55 3.8487 110.882 3.36401C111.498 2.4629 114 -3.12454 113.612 -2.13586" stroke="black" stroke-width="2.02391" stroke-linecap="round"/>
<path d="M164.918 -8.01228C164.282 -7.23104 157.349 -0.654074 159.975 0.551306C161.216 1.12055 162.276 -0.0646951 163.006 -0.925385C163.699 -1.7407 166.003 -7.00883 163.794 -7.14345C159.565 -7.40111 161.214 3.72648 164.166 -2.61297C166.958 -8.61035 160.701 -8.32359 162.023 -3.31118C162.643 -0.958626 163.559 -5.5298 163.493 -6.25945C163.107 -10.5539 160.505 -7.62207 160.176 -5.07407" stroke="black" stroke-width="2.02391" stroke-linecap="round"/>
<path d="M189.126 12.284C186.571 14.2291 179.987 20.7883 183.022 19.7401C185.074 19.0312 186.778 13.7939 187.209 11.9299C188.421 6.69655 181.782 15.1619 184.929 17.6232C189.136 20.9142 191.339 4.56 186.136 12.485C185.337 13.7015 182.172 20.8948 184.986 21.0334C188.565 21.2099 189.29 14.5825 189.352 12.284" stroke="black" stroke-width="2.02391" stroke-linecap="round"/>
<path d="M108.012 30.0039C107.883 30.1553 100.367 39.7949 101.98 39.5367C103.348 39.3176 103.906 35.9412 104.193 34.916C104.662 33.2349 105.455 25.0575 103.397 30.496C102.544 32.7513 103.72 38.2019 104.602 34.1048C104.883 32.7982 105.44 29.5114 103.801 28.7582C101.756 27.8182 101.992 33.9839 101.96 34.8858" stroke="black" stroke-width="2.02391" stroke-linecap="round"/>
<path d="M970.913 106.48C968.612 107.535 963.083 109.322 964.748 112.931C965.169 113.843 966.143 114.425 967.141 114.014C968.405 113.494 970.03 108.357 968.331 108.749C966.864 109.087 965.07 114.476 966.6 111.926C967.554 110.335 968.795 104.323 966.817 108.774" stroke="black" stroke-width="2.02391" stroke-linecap="round"/>
<path d="M972.945 114.903C974.379 114.367 979.683 113.259 980.36 111.36C980.56 110.796 979.894 110.466 979.486 110.752C978.008 111.784 977.231 114.169 977.268 115.904C977.304 117.604 985.927 110.171 979.172 111.167" stroke="black" stroke-width="2.02391" stroke-linecap="round"/>
<path d="M971.799 125.652C971.691 125.806 965.335 134.293 969.656 132.341C970.999 131.735 971.605 130.741 971.668 129.355" stroke="black" stroke-width="2.02391" stroke-linecap="round"/>
<path d="M950.856 127.848C950.456 128.592 946.81 133.683 947.819 134.792C948.466 135.504 949.004 134.671 949.166 134.069C949.358 133.356 949.726 124.685 947.247 127.334C945.047 129.686 946.088 136.799 948.937 131.784C950.743 128.604 951.612 122.116 946.464 125.423" stroke="black" stroke-width="2.02391" stroke-linecap="round"/>
<path d="M953.806 148.134C953.347 147.557 949.547 141.391 948.383 143.428C947.571 144.849 947.39 146.589 947.271 148.187C947.161 149.67 948.329 154.901 949.949 151.386C950.366 150.481 951.837 143.687 950.08 143.477C948.132 143.244 948.808 149.217 949.643 150.199" stroke="black" stroke-width="2.02391" stroke-linecap="round"/>
<path d="M966.718 148.921C966.724 148.884 967.875 140.237 966.817 143.491C966.314 145.035 966.82 146.607 967.177 148.101" stroke="black" stroke-width="2.02391" stroke-linecap="round"/>
<path d="M988.48 127.979C991.506 128.133 996.194 129.206 996.598 125.102C996.754 123.516 996.338 123.252 994.97 123.522" stroke="black" stroke-width="2.02391" stroke-linecap="round"/>
<path d="M970.848 159.178C971.452 160.499 973.348 166.705 974.821 162.962C975.549 161.11 975.913 159.207 975.855 157.221C975.775 154.482 975.569 158.176 975.829 159.277" stroke="black" stroke-width="2.02391" stroke-linecap="round"/>
<path d="M999.165 120.703C998.095 121.434 991.818 124.24 993.758 126.533C994.931 127.921 997.184 126.532 998.189 125.745C1003.81 121.347 997.423 119.849 993.936 124.855C991.52 128.322 993.361 130.485 995.385 126.579C996.949 123.561 995.423 121.185 994.544 124.964" stroke="black" stroke-width="2.02391" stroke-linecap="round"/>
<path d="M994.61 141.645C993.287 143.157 988.7 146.831 989.533 149.445C990.002 150.915 991.938 148.315 992.115 147.974C992.548 147.14 995.487 136.203 991.799 138.554C990.944 139.098 988.488 143.394 989.787 144.305C991.61 145.585 993.285 141.53 993.266 140.236" stroke="black" stroke-width="2.02391" stroke-linecap="round"/>
<path d="M971.176 163.472C974.307 145.168 967.167 162.792 969.322 163.319C971.756 163.914 973.156 154.548 970.684 159.08" stroke="black" stroke-width="2.02391" stroke-linecap="round"/>
<path d="M933.452 174.745C934.881 170.914 937.289 162.462 932.797 169.469" stroke="black" stroke-width="2.02391" stroke-linecap="round"/>
<path d="M963.998 187.527C963.833 187.716 959.79 192.791 959.991 192.779C961.166 192.711 961.937 190.033 962.236 189.198C962.455 188.582 964.145 182.644 962.895 184.177C961.566 185.806 961.049 189.572 961.642 191.574C962.671 195.048 965.337 189.072 965.502 188.135C966.213 184.102 963.33 185.636 962.214 188.098C961.174 190.393 961.126 194.486 963.922 190.76C964.447 190.06 967.4 182.62 964.757 183.947C963.158 184.75 960.953 190.873 964.228 188.346" stroke="black" stroke-width="2.02391" stroke-linecap="round"/>
<path d="M977.763 180.12C977.855 180.053 986.467 174.247 983.04 173.711C980.268 173.278 976.715 176.911 974.683 178.383" stroke="black" stroke-width="2.02391" stroke-linecap="round"/>
<path d="M951.118 175.073C951.128 175.037 953.288 165.944 953.27 165.948C952.549 166.098 952.043 168.925 951.919 169.444C951.826 169.835 950.805 175.111 952.236 174.148C954.057 172.923 957.705 163.955 952.822 170.059" stroke="black" stroke-width="2.02391" stroke-linecap="round"/>
<path d="M935.484 156.327C935.354 155.133 935.637 144.39 933.354 149.441C933.022 150.175 930.74 156.381 932.84 155.437C936.303 153.881 937.793 144.298 933.419 151.969" stroke="black" stroke-width="2.02391" stroke-linecap="round"/>
<path d="M1000.34 156.163C1000.44 156.052 1005.79 149.089 1002.72 151.586C1001.17 152.849 1000.3 154.92 999.595 156.735C998.696 159.057 999.164 159.796 999.984 157.015" stroke="black" stroke-width="2.02391" stroke-linecap="round"/>
<path d="M982.811 80C982.307 80.4546 973.704 88.5915 978.139 89.169C980.05 89.418 981.099 87.0526 981.886 85.6879C984.954 80.3657 979.31 83.9487 978.932 87.4794C978.833 88.4067 979.973 89.0594 980.546 88.184C981.346 86.9605 982.567 84.339 982.243 82.8148C982.118 82.2271 981.381 83.4872 981.611 84.0274C982.245 85.5224 983.975 83.1172 984.253 82.589" stroke="black" stroke-width="2.02391" stroke-linecap="round"/>
<path d="M955.772 102.58C955.551 102.773 949.808 107.264 950.756 107.924C951.482 108.429 952.895 106.165 953.136 105.814C953.583 105.161 955.398 101.11 955.117 101.827" stroke="black" stroke-width="2.02391" stroke-linecap="round"/>
<path d="M992.348 97.5661C991.886 98.1325 986.856 102.901 988.761 103.775C989.661 104.187 990.431 103.328 990.961 102.704C991.463 102.113 993.135 98.2936 991.533 98.196C988.464 98.0092 989.66 106.077 991.802 101.481C993.828 97.1325 989.288 97.3404 990.247 100.974C990.697 102.68 991.362 99.3659 991.314 98.8369C991.034 95.7234 989.145 97.849 988.907 99.6963" stroke="black" stroke-width="2.02391" stroke-linecap="round"/>
<path d="M1009.91 112.281C1008.06 113.691 1003.28 118.446 1005.48 117.687C1006.97 117.173 1008.21 113.376 1008.52 112.024C1009.4 108.23 1004.58 114.367 1006.87 116.152C1009.92 118.538 1011.52 106.681 1007.74 112.427C1007.16 113.309 1004.87 118.524 1006.91 118.624C1009.51 118.752 1010.03 113.947 1010.08 112.281" stroke="black" stroke-width="2.02391" stroke-linecap="round"/>
<path d="M951.052 125.128C950.959 125.238 945.505 132.226 946.675 132.039C947.668 131.88 948.073 129.432 948.281 128.689C948.622 127.47 949.197 121.542 947.704 125.485C947.085 127.12 947.938 131.071 948.578 128.101C948.782 127.154 949.186 124.771 947.997 124.225C946.513 123.543 946.684 128.013 946.661 128.667" stroke="black" stroke-width="2.02391" stroke-linecap="round"/>
<path d="M399.582 541.216C397.787 545.825 398.386 550.098 398.56 554.963C398.786 561.281 398.978 567.559 399.437 573.866" stroke="black" stroke-width="1.90596" stroke-linecap="round"/>
<path d="M399.065 585.18C397.75 591.51 398.342 597.679 398.889 604.079C399.409 610.157 400.139 616.212 400.857 622.268" stroke="black" stroke-width="1.90596" stroke-linecap="round"/>
<path d="M359.134 586.665C363.167 584.87 366.968 584.797 371.309 584.503C377.876 584.057 384.202 583.209 390.656 581.952" stroke="black" stroke-width="1.90596" stroke-linecap="round"/>
<path d="M405.263 580.096C416.414 579.382 427.389 577.531 438.447 575.997" stroke="black" stroke-width="1.90596" stroke-linecap="round"/>
<path d="M407.343 574.651L410.917 568.167" stroke="black" stroke-width="1.90596" stroke-linecap="round"/>
<path d="M390.979 590.35L386.639 594.639" stroke="black" stroke-width="1.90596" stroke-linecap="round"/>
<path d="M410.636 588.666L414.95 591.576" stroke="black" stroke-width="1.90596" stroke-linecap="round"/>
<path d="M389.549 570.847C384.874 569.432 380.714 567.354 376.273 565.359" stroke="black" stroke-width="1.90596" stroke-linecap="round"/>
<path d="M1262 959.739C1264.25 955.621 1270.37 940.155 1274.18 950.877C1274.58 952 1275.57 958.098 1276.77 958.249C1277.84 958.384 1279.99 944.782 1283.14 942.99C1287.94 940.265 1289.47 947.151 1291.1 950.04C1296.06 958.849 1294.28 952.941 1296.86 946.903C1299.34 941.089 1302.49 949.327 1303.89 951.412C1307.05 956.139 1307.44 946.458 1310.16 943.604C1312.83 940.811 1315.39 942.268 1316.96 945.118C1320.28 951.169 1320.92 952.194 1323.28 944.795C1326.22 935.546 1329.01 947.238 1331.32 950.417C1334.72 955.106 1334.94 938.878 1338.81 939.983C1339.99 940.322 1345.55 954.555 1347.21 950.97C1350.54 943.779 1349.78 946.753 1353.35 953.142C1357.56 960.683 1359.87 943.901 1362.11 942.393C1364.36 940.876 1365.81 956.021 1370.26 945.66C1375.39 933.702 1374.06 940.087 1379.26 947.205C1383.71 953.29 1384.02 931.173 1388.7 940.193C1393.87 950.186 1395.91 946.787 1405.27 948.433" stroke="black" stroke-width="2" stroke-linecap="round"/>
<g clip-path="url(#clip1_505_44)">
<path d="M193.158 726.767C190.729 722.752 180.438 709.684 191.622 711.784C192.793 712.004 198.565 714.21 199.299 713.248C199.954 712.39 189.276 703.695 189.313 700.068C189.369 694.554 196.092 696.69 199.407 696.736C209.519 696.876 203.517 695.443 199.592 690.18C195.814 685.115 204.521 686.53 207.026 686.372C212.702 686.015 204.527 680.814 203.432 677.022C202.36 673.311 204.907 671.83 208.158 671.909C215.06 672.078 216.264 672.049 211.055 666.288C204.544 659.088 216.049 662.562 219.958 662.164C225.725 661.577 211.805 653.231 214.706 650.443C215.594 649.59 230.691 651.945 228.428 648.706C223.888 642.209 226.077 644.361 233.394 644.491C242.029 644.643 228.686 634.206 228.507 631.514C228.327 628.806 242.15 635.165 235.429 626.113C227.672 615.666 232.525 620.022 241.292 619.108C248.787 618.327 229.83 606.929 239.976 607.426C251.218 607.976 249.303 604.507 255.436 597.241" stroke="black" stroke-width="2" stroke-linecap="round"/>
</g>
<g clip-path="url(#clip2_505_44)">
<path d="M1146.16 184.309C1147.45 179.8 1150.05 163.372 1156.11 173.006C1156.74 174.015 1159.04 179.749 1160.25 179.635C1161.32 179.533 1160.45 165.79 1163.14 163.354C1167.22 159.649 1170.22 166.035 1172.44 168.499C1179.21 176.015 1176.18 170.637 1177.38 164.182C1178.53 157.969 1183.41 165.32 1185.22 167.051C1189.34 170.975 1187.6 161.442 1189.64 158.063C1191.64 154.755 1194.46 155.618 1196.61 158.058C1201.17 163.239 1202.01 164.102 1202.7 156.367C1203.56 146.697 1208.83 157.501 1211.77 160.1C1216.12 163.934 1212.79 148.049 1216.81 148.285C1218.04 148.357 1226.56 161.037 1227.4 157.175C1229.09 149.431 1229 152.499 1233.87 157.957C1239.62 164.398 1238.22 147.516 1240.08 145.556C1241.94 143.585 1246.66 158.049 1248.74 146.969C1251.14 134.18 1251.24 140.7 1257.86 146.513C1263.53 151.484 1259.02 129.829 1265.54 137.613C1272.78 146.238 1274.02 142.476 1283.52 142.041" stroke="black" stroke-width="2" stroke-linecap="round"/>
</g>
<g clip-path="url(#clip3_505_44)">
<path d="M576.829 198.102C597.211 190.624 619.845 186.293 639.99 197.254C650.747 203.106 657.676 215.892 646.174 224.878C638.339 230.998 622.765 236.317 614.771 227.838C605.943 218.475 635.405 220.568 638.516 221.374C653.075 225.148 663.762 232.097 674.969 241.676C679.167 245.264 678.554 242.062 676.845 238.808C675.363 235.985 673.601 232.813 671.422 230.483C670.758 229.773 674.017 235.126 674.572 235.945C676.952 239.458 679.562 243.608 674.329 245.736C673.488 246.078 665.395 248.581 664.724 247.484C664.375 246.913 668.412 242.446 668.828 241.708C671.526 236.917 671.759 233.579 669.509 228.719" stroke="black" stroke-width="2" stroke-linecap="round"/>
</g>
<g clip-path="url(#clip4_505_44)">
<path d="M1356.36 635.276C1335.17 639.997 1312.16 641.3 1293.64 627.774C1283.75 620.552 1278.58 606.963 1291.16 599.576C1299.74 594.544 1315.88 591.329 1322.68 600.789C1330.2 611.236 1301.27 605.27 1298.29 604.06C1284.36 598.397 1274.68 590.097 1264.84 579.121C1261.15 575.01 1261.34 578.265 1262.6 581.716C1263.7 584.71 1265.02 588.087 1266.88 590.684C1267.44 591.476 1264.92 585.74 1264.48 584.854C1262.58 581.057 1260.54 576.599 1266.01 575.181C1266.89 574.953 1275.24 573.541 1275.76 574.717C1276.03 575.329 1271.44 579.224 1270.93 579.9C1267.62 584.293 1266.95 587.571 1268.54 592.686" stroke="black" stroke-width="2" stroke-linecap="round"/>
</g>
<path d="M1470.08 391.249C1465.1 390.701 1461.24 390.466 1456.99 393.178C1453.41 395.463 1450.2 398.389 1447.59 401.738C1443.3 407.24 1439.34 416.039 1441.24 423.225C1443.99 433.578 1455.84 437.602 1465.46 438.523C1471.3 439.081 1475.81 440.705 1481 443.299C1486.45 446.021 1491.96 447.013 1498.06 446.545C1514.2 445.306 1525.57 430.037 1536.7 419.901C1541.26 415.749 1545.83 411.151 1547.43 405.009C1549.21 398.2 1548.84 392.129 1546.51 385.538C1542 372.777 1528.86 364.953 1515.61 365.725C1502.58 366.484 1493.99 378.645 1484.26 385.846C1477.91 390.544 1472.37 389.937 1465.02 390.672" stroke="black" stroke-width="1.70404" stroke-linecap="round"/>
<path d="M348.146 163.496C357.263 160.985 363.347 160.19 371.65 163.635" stroke="#030303" stroke-width="0.627474"/>
<path d="M347.726 158.767C353.73 157.566 363.538 154 369.523 157.34" stroke="#030303" stroke-width="0.627474"/>
<path d="M341.878 160.222C349.031 152.906 355.774 147.808 366.054 148.191" stroke="#030303" stroke-width="0.627474"/>
<path d="M338.744 155.297C345.753 150.583 352.825 145.29 361.549 147.967" stroke="#030303" stroke-width="0.627474"/>
<path d="M331.244 157.564C334.989 154.633 338.793 151.335 343.074 149.142C354.468 143.306 342.219 150.461 352.93 146.456" stroke="#030303" stroke-width="0.627474"/>
<path d="M325.686 157.943C327.7 154.339 329.432 150.629 332.361 147.626C339.494 140.31 332.994 148.449 340.594 142.653" stroke="#030303" stroke-width="0.714345"/>
<path d="M324.361 237.558C330.87 237.783 336.759 237.833 339.334 231.136C339.872 229.737 340.166 228.268 340.702 226.87" stroke="#030303" stroke-width="0.627474"/>
<path d="M338.268 240.999C342.866 238.47 346.985 236.158 347.15 230.504C347.183 229.357 347.194 228.212 347.194 227.065" stroke="#030303" stroke-width="0.627474"/>
<path d="M348.957 240.831C352.389 236.163 355.567 231.869 355.672 225.946" stroke="#030303" stroke-width="0.627474"/>
<path d="M354.889 242.538C358.671 238.681 363.9 234.118 361.856 228.213" stroke="#030303" stroke-width="0.627474"/>
<path d="M363.954 242.51C366.903 235.536 368.613 229.053 369.998 221.749" stroke="#030303" stroke-width="0.627474"/>
<path d="M375.65 236.606C376.071 229.762 376.241 223.282 373.244 217.021" stroke="#030303" stroke-width="0.627474"/>
<path d="M381.974 228.296C381.73 221.264 381.133 214.966 378.448 208.459" stroke="#030303" stroke-width="0.627474"/>
<path d="M389.753 220.854C386.742 214.795 383.586 207.36 377.721 203.45" stroke="#030303" stroke-width="0.627474"/>
<path d="M391.18 212.068C389.168 208.615 387.68 205.711 385.115 202.636C378.86 195.139 384.531 202.869 377.945 196.204" stroke="#030303" stroke-width="0.627474"/>
<path d="M395.069 201.8C391.857 198.994 386.446 194.13 382.826 191.435C364.996 178.161 388.102 195.432 377.329 188.593" stroke="#030303" stroke-width="0.627474"/>
<path d="M394.118 192.734C390.774 190.479 384.729 186.017 380.6 184.496C367.136 179.534 383.985 186.556 374 185.32" stroke="#030303" stroke-width="0.627474"/>
<path d="M388.438 181.682C384.788 180.472 380.816 178.944 376.954 178.418C366.393 176.979 378.27 179.204 368.936 179.024" stroke="#030303" stroke-width="0.627474"/>
<path d="M381.331 173.456C376.712 173.142 369.908 172.516 365.114 172.748C347.336 173.607 370.017 172.801 357.603 174.604" stroke="#030303" stroke-width="0.627474"/>
<path d="M368.488 166.937C360.208 167.924 352.51 170.04 344.424 171.973" stroke="#030303" stroke-width="0.627474"/>
<path d="M327.756 143.29C323.181 147.9 319.278 153.397 320.653 160.172" stroke="#030303" stroke-width="0.714345"/>
<path d="M318.36 146.436C315.412 151.127 311.367 157.134 315.238 162.553" stroke="#030303" stroke-width="0.714345"/>
<path d="M311.225 149.048C308.595 152.926 302.391 163.309 308.74 167.618" stroke="#030303" stroke-width="0.714345"/>
<path d="M301.86 154.59C299.252 162.051 295.254 173.303 304.567 177.748" stroke="#030303" stroke-width="0.714345"/>
<path d="M292.335 165.452C291.947 175.467 291.847 185.596 303.293 186.348" stroke="#030303" stroke-width="0.714345"/>
<path d="M291.624 183.55C293.669 189.387 296.517 200.038 304.579 197.764" stroke="#030303" stroke-width="0.627474"/>
<path d="M288.462 191.552C292.141 199.512 295.289 208.563 305.083 207.081" stroke="#030303" stroke-width="0.627474"/>
<path d="M286.392 204.031C290.673 209.558 300.082 222.358 307.238 213.46" stroke="#030303" stroke-width="0.627474"/>
<path d="M296.045 221.546C299.6 222.147 303.184 223.023 306.836 222.659C315.79 221.768 306.502 221.775 314.596 219.7" stroke="#030303" stroke-width="0.627474"/>
<path d="M303.404 229.633C310.56 228.58 317.548 227.589 323.075 222.61" stroke="#030303" stroke-width="0.627474"/>
<path d="M311.211 235.312C319.229 235.5 323.639 233.846 328.509 227.761C329.473 226.557 330.442 225.429 331.609 224.428" stroke="#030303" stroke-width="0.627474"/>
<path d="M316.191 238.698C319.699 237.192 323.216 235.819 326.526 233.895C335.486 228.686 325.355 234.134 333.036 228.905" stroke="#030303" stroke-width="0.627474"/>
<path d="M700.033 923.813C716.237 913.895 732.541 901.93 750.325 894.851C753.667 893.52 756.826 892.511 760.375 892.141" stroke="black" stroke-width="2.40851" stroke-linecap="round"/>
<path d="M697.749 942.023C713.309 932.324 728.748 922.26 744.765 913.316C750.297 910.227 755.988 907.192 762.118 905.483" stroke="black" stroke-width="2.40851" stroke-linecap="round"/>
<path d="M696.487 954.403C717.962 941.036 739.217 927.67 762.238 917.142" stroke="black" stroke-width="2.40851" stroke-linecap="round"/>
<path d="M741.924 873C735.26 907.116 730.497 942.234 729.002 977" stroke="black" stroke-width="2.40851" stroke-linecap="round"/>
<path d="M722.721 878.349C719.507 900.168 718.064 921.845 716.981 943.856" stroke="black" stroke-width="2.40851" stroke-linecap="round"/>
<path d="M689.026 652.532C706.714 668.249 723.013 682.025 745.218 690.338" stroke="black" stroke-width="1.38456" stroke-linecap="round"/>
<path d="M757.055 641C729.427 668.241 707.223 699.819 683 730.009" stroke="black" stroke-width="1.38456" stroke-linecap="round"/>
<g clip-path="url(#clip5_505_44)">
<path d="M6.13486 522.646C16.4669 521.877 22.1664 522.157 28.0942 513.979C30.7351 510.336 33.0122 506.639 33.7273 502.125C34.5113 497.177 32.8104 484.714 26.5705 492.752C22.9742 497.384 22.6708 502.914 24.4437 508.363C28.8382 521.869 46.4069 516.904 55.9697 512.241C65.1134 507.783 73.6348 499.539 75.057 489.064C75.7294 484.111 73.3825 476.413 67.3737 481.925C62.8194 486.103 63.3314 493.881 65.0795 499.143C67.9573 507.805 81.2894 505.891 87.8853 503.788C98.3267 500.458 105.601 487.82 108.653 477.921C109.79 474.233 108.751 464.918 104.024 471.425C94.8693 484.026 109.188 497.806 122.525 492.83C133.218 488.84 139.417 474.055 143.337 464.317C144.105 462.408 144.594 447.579 140.24 453.942C136.697 459.12 136.76 468.1 140.543 473.068C157.101 494.817 182.848 458.623 196.333 449.748" stroke="black" stroke-width="2" stroke-linecap="round"/>
</g>
</g>
<defs>
<clipPath id="clip0_505_44">
<rect width="1920" height="1080" fill="white"/>
</clipPath>
<clipPath id="clip1_505_44">
<rect width="146" height="24" fill="white" transform="translate(173 716.196) rotate(-59.8092)"/>
</clipPath>
<clipPath id="clip2_505_44">
<rect width="146" height="24" fill="white" transform="translate(1140.22 162.335) rotate(-12.5917)"/>
</clipPath>
<clipPath id="clip3_505_44">
<rect width="77" height="85" fill="white" transform="translate(656.963 171.583) rotate(72.5964)"/>
</clipPath>
<clipPath id="clip4_505_44">
<rect width="77" height="85" fill="white" transform="translate(1273.43 650.978) rotate(-99.8131)"/>
</clipPath>
<clipPath id="clip5_505_44">
<rect width="205" height="39" fill="white" transform="translate(-3.5752 489.906) rotate(-14.8416)"/>
</clipPath>
</defs>
</svg>
