<svg width="1512" height="1080" viewBox="0 0 1512 1080" fill="none" xmlns="http://www.w3.org/2000/svg">
<g clip-path="url(#clip0_516_44)">
<rect width="1512" height="1080" fill="white"/>
<g clip-path="url(#clip1_516_44)">
<path d="M1136.32 900.58C1135.67 893.159 1130.16 867.335 1144.62 878.157C1146.14 879.291 1152.82 886.474 1154.54 885.618C1156.07 884.854 1146.94 864.989 1149.53 859.847C1153.47 852.029 1161.56 859.781 1166.25 862.167C1180.56 869.445 1173.01 863.202 1171.1 852.956C1169.27 843.092 1180.68 851.205 1184.36 852.734C1192.7 856.199 1184.69 843.065 1185.79 836.896C1186.86 830.857 1191.52 830.53 1196.1 832.919C1205.82 837.992 1207.55 838.792 1204.16 826.938C1199.93 812.12 1213.89 825.125 1219.74 827.295C1228.36 830.496 1214.37 808.86 1220.46 806.918C1222.32 806.324 1242.18 820.249 1241.23 814.049C1239.31 801.614 1240.92 806.213 1251.25 811.52C1263.45 817.783 1251.75 793.571 1253.38 789.609C1255.02 785.625 1270.26 804.363 1267.02 786.76C1263.28 766.444 1267.15 776.047 1280.28 780.883C1291.5 785.018 1272.47 755.506 1286.58 763.317C1302.22 771.972 1301.92 765.688 1315.74 759.628" stroke="black" stroke-width="2" stroke-linecap="round"/>
</g>
<g clip-path="url(#clip2_516_44)">
<path d="M101.234 225.981C96.0071 216.116 74.0562 181.316 97.2967 197.649C99.7317 199.36 111.782 209.782 113.252 208.902C114.565 208.117 92.0345 180.644 91.9263 174.246C91.7618 164.518 105.779 175.89 112.639 179.708C133.562 191.352 121.074 182.044 112.689 168.277C104.617 155.024 122.698 167.35 127.872 169.894C139.597 175.657 122.422 157.209 119.963 149.242C117.557 141.445 122.751 141.686 129.48 145.491C143.767 153.57 146.255 154.874 135.188 138.776C121.354 118.653 145.33 137.79 153.397 141.489C165.296 146.947 136.078 116.44 141.937 114.76C143.731 114.245 175.08 135.443 170.234 127.14C160.514 110.489 165.151 116.778 180.292 125.254C198.163 135.257 170.032 101.688 169.525 96.7058C169.016 91.6962 197.933 118.566 183.57 94.9195C166.994 67.6284 177.254 80.8311 195.342 89.0898C210.807 96.1515 171.015 54.5489 192.028 66.8655C215.311 80.5133 211.175 72.1956 223.491 66.2067" stroke="black" stroke-width="2" stroke-linecap="round"/>
</g>
<path d="M1412.71 492.438C1412.57 505.758 1412.87 518.627 1409.66 531.583C1408 538.248 1406.72 544.829 1403.48 550.971C1398.84 559.728 1391.15 570.323 1381.04 573.444C1379.56 573.9 1376.21 574.207 1379.57 573.344C1383.23 572.407 1387.33 571.728 1391.11 571.561C1396.59 571.319 1401.46 574.979 1404.96 578.752C1411.23 585.499 1414.22 594.248 1416.42 603.013C1418.62 611.78 1419.21 620.655 1420.56 629.555C1421.05 632.765 1421.49 635.985 1421.83 639.215C1421.85 639.467 1422.19 643.083 1421.75 642.333C1419.31 638.145 1419.13 631.673 1418.64 627.035C1417.85 619.612 1418.24 612.176 1419.04 604.768C1419.59 599.6 1420.09 593.97 1422.16 589.107C1424.62 583.311 1430.02 579.613 1435.1 575.715C1435.1 575.715 1449.53 569.906 1447.14 567.281C1441.62 561.229 1424.16 556.508 1420.77 548.955C1416.9 540.332 1416.04 529.924 1415.73 520.614C1415.41 510.74 1414.71 500.827 1415.41 490.973" stroke="black" stroke-width="1.90596" stroke-linecap="round"/>
<g clip-path="url(#clip3_516_44)">
<path d="M1447.45 214.956C1446.05 218.577 1446.52 221.934 1446.66 225.757C1446.83 230.721 1446.98 235.654 1447.34 240.609" stroke="black" stroke-width="1.90596" stroke-linecap="round"/>
<path d="M1447.05 249.498C1446.02 254.472 1446.49 259.32 1446.91 264.348C1447.32 269.123 1447.89 273.881 1448.45 278.639" stroke="black" stroke-width="1.90596" stroke-linecap="round"/>
<path d="M1415.88 250.665C1419.03 249.255 1422 249.198 1425.39 248.967C1430.51 248.616 1435.45 247.95 1440.49 246.962" stroke="black" stroke-width="1.90596" stroke-linecap="round"/>
<path d="M1451.89 245.504C1460.59 244.943 1469.16 243.488 1477.79 242.283" stroke="black" stroke-width="1.90596" stroke-linecap="round"/>
<path d="M1453.51 241.226L1456.3 236.131" stroke="black" stroke-width="1.90596" stroke-linecap="round"/>
<path d="M1440.74 253.561L1437.35 256.931" stroke="black" stroke-width="1.90596" stroke-linecap="round"/>
<path d="M1456.08 252.237L1459.45 254.524" stroke="black" stroke-width="1.90596" stroke-linecap="round"/>
<path d="M1439.62 238.237C1435.98 237.125 1432.73 235.493 1429.26 233.925" stroke="black" stroke-width="1.90596" stroke-linecap="round"/>
</g>
<path d="M97.6525 757.375C95.6381 762.588 96.3102 767.42 96.5055 772.923C96.7592 780.068 96.9746 787.168 97.4895 794.301" stroke="black" stroke-width="1.90596" stroke-linecap="round"/>
<path d="M97.0731 807.096C95.5982 814.255 96.2616 821.233 96.8759 828.47C97.4593 835.344 98.2779 842.192 99.0831 849.041" stroke="black" stroke-width="1.90596" stroke-linecap="round"/>
<path d="M52.2725 808.776C56.7971 806.746 61.0626 806.664 65.9323 806.331C73.3 805.827 80.3979 804.867 87.6385 803.446" stroke="black" stroke-width="1.90596" stroke-linecap="round"/>
<path d="M104.026 801.347C116.537 800.539 128.851 798.445 141.258 796.71" stroke="black" stroke-width="1.90596" stroke-linecap="round"/>
<path d="M106.36 795.188L110.37 787.855" stroke="black" stroke-width="1.90596" stroke-linecap="round"/>
<path d="M88 812.944L83.1309 817.794" stroke="black" stroke-width="1.90596" stroke-linecap="round"/>
<path d="M110.055 811.038L114.895 814.33" stroke="black" stroke-width="1.90596" stroke-linecap="round"/>
<path d="M86.3961 790.887C81.1511 789.286 76.484 786.936 71.502 784.679" stroke="black" stroke-width="1.90596" stroke-linecap="round"/>
<g clip-path="url(#clip4_516_44)">
<path d="M-77.8352 592.607C-67.7101 590.41 -62.027 589.895 -57.293 580.973C-55.1839 576.998 -53.4425 573.021 -53.3615 568.452C-53.2726 563.443 -56.6886 551.337 -61.7512 560.164C-64.669 565.251 -64.201 570.77 -61.6883 575.919C-55.4599 588.684 -38.7514 581.326 -29.9293 575.379C-21.4937 569.694 -14.2004 560.346 -14.2474 549.775C-14.2697 544.777 -17.6634 537.479 -22.848 543.773C-26.7777 548.543 -25.19 556.175 -22.7277 561.143C-18.6743 569.321 -5.73746 565.573 0.502205 562.573C10.3797 557.825 15.8275 544.3 17.4746 534.072C18.0882 530.261 15.7653 521.181 11.9875 528.283C4.67266 542.033 20.7675 553.69 33.283 546.909C43.3186 541.472 47.4032 525.97 49.9323 515.781C50.4274 513.784 48.8513 499.031 45.4232 505.937C42.6339 511.557 43.9443 520.441 48.3806 524.835C67.8004 544.073 88.2689 504.653 100.389 493.99" stroke="black" stroke-width="2" stroke-linecap="round"/>
</g>
<path d="M1093.57 171.446C1081.72 166.699 1074.24 165.897 1064.82 175.08C1058.85 180.901 1053.39 189.318 1051.04 197.361C1049.69 202.022 1055.41 196.852 1056.39 195.765C1067.69 183.185 1071.08 163.82 1061.11 149.476C1054.61 140.127 1044.48 142.217 1036.01 147.679C1023.09 156.009 1016.6 171.842 1015.01 186.621C1014.47 191.537 1012.01 206.328 1018.07 209.048C1023.1 211.301 1024.27 201.609 1024.49 198.655C1024.79 194.443 1025.13 185.323 1021.75 182.195C1016.91 177.709 1008.46 184.779 1005.48 188.265C999.819 194.887 996.013 204.01 992.096 211.741C991.808 212.31 995.16 210.09 995.75 209.706C997.441 208.609 999.504 208.248 1001.1 207.003C1002.29 206.08 1007.45 199.865 1002.76 202.309C1001.11 203.171 993.774 212.459 993.38 212.253C991.767 211.413 991.441 199.728 991.398 197.568C991.294 192.366 999.077 201.056 999.925 202.378" stroke="black" stroke-width="2" stroke-linecap="round"/>
</g>
<defs>
<clipPath id="clip0_516_44">
<rect width="1512" height="1080" fill="white"/>
</clipPath>
<clipPath id="clip1_516_44">
<rect width="231.783" height="38.1014" fill="white" transform="translate(1115 871.406) rotate(-33.6412)"/>
</clipPath>
<clipPath id="clip2_516_44">
<rect width="202.805" height="62.468" fill="white" transform="translate(59 184.494) rotate(-44.1665)"/>
</clipPath>
<clipPath id="clip3_516_44">
<rect width="64" height="66" fill="white" transform="translate(1415 214)"/>
</clipPath>
<clipPath id="clip4_516_44">
<rect width="205" height="39" fill="white" transform="translate(-92 561.534) rotate(-22.8282)"/>
</clipPath>
</defs>
</svg>
